<?xml version="1.0" encoding="UTF-8" standalone="no"?>
<!DOCTYPE svg PUBLIC "-//W3C//DTD SVG 1.1//EN" "http://www.w3.org/Graphics/SVG/1.1/DTD/svg11.dtd">
<svg xmlns="http://www.w3.org/2000/svg" version="1.1" viewBox="0.00 0.00 451.00 278.00">
<path fill="#ffffff" d="
  M 451.00 0.00
  L 451.00 278.00
  L 0.00 278.00
  L 0.00 0.00
  L 451.00 0.00
  Z"
/>
<g stroke-width="2.00" fill="none" stroke-linecap="butt">
<path stroke="#151515" d="
  M 295.00 36.77
  Q 295.22 38.58 292.83 39.40
  Q 290.54 40.18 289.99 40.68
  Q 287.45 42.99 289.60 46.88
  Q 290.20 47.96 291.45 47.98
  C 293.56 48.00 301.52 46.81 300.79 43.25
  Q 300.21 40.43 298.38 36.89"
/>
<path stroke="#151515" d="
  M 154.47 92.91
  Q 154.39 101.20 146.19 101.32"
/>
<path stroke="#151515" d="
  M 143.47 90.52
  Q 143.77 94.86 146.72 97.17
  A 1.99 1.99 0.0 0 0 149.90 95.25
  L 148.96 90.15
  Q 148.85 89.54 148.24 89.45
  L 145.53 89.05"
/>
<path stroke="#151515" d="
  M 274.85 249.55
  Q 269.84 247.12 266.95 249.19
  Q 265.67 250.11 264.72 250.86
  Q 264.34 251.17 263.84 251.13
  Q 259.48 250.78 255.96 253.81
  Q 255.58 254.14 255.66 254.64
  Q 255.99 256.64 257.24 258.96"
/>
<path stroke="#151515" d="
  M 274.72 255.51
  L 272.84 255.07
  Q 272.36 254.96 272.15 254.52
  Q 271.64 253.44 270.82 252.59
  C 269.93 251.66 268.14 251.98 267.39 252.86
  A 0.78 0.78 0.0 0 0 267.31 253.76
  Q 268.78 256.22 268.76 258.94"
/>
<path stroke="#151515" d="
  M 265.35 258.93
  Q 264.46 256.31 263.52 255.18
  Q 262.54 253.97 260.88 254.49
  Q 260.42 254.64 260.42 255.12
  L 260.42 258.94"
/>
</g>
<path fill="#080808" d="
  M 295.00 36.77
  Q 295.22 38.58 292.83 39.40
  Q 290.54 40.18 289.99 40.68
  Q 287.45 42.99 289.60 46.88
  Q 290.20 47.96 291.45 47.98
  C 293.56 48.00 301.52 46.81 300.79 43.25
  Q 300.21 40.43 298.38 36.89
  Q 322.42 38.22 346.26 39.68
  Q 350.23 39.93 351.76 40.80
  Q 354.60 42.43 354.75 46.25
  Q 354.93 50.94 354.70 69.82
  Q 354.66 72.55 353.41 73.90
  Q 351.14 76.33 346.79 76.57
  Q 344.49 76.69 251.76 82.07
  Q 251.25 82.10 251.25 82.61
  Q 251.21 92.11 251.29 99.31
  Q 251.34 103.37 248.89 105.43
  Q 247.31 106.76 243.28 106.76
  Q 209.62 106.76 195.25 106.74
  Q 189.51 106.73 188.76 106.53
  Q 186.03 105.83 184.90 103.11
  Q 184.27 101.60 184.27 98.30
  Q 184.25 39.87 184.25 18.50
  Q 184.25 14.22 185.06 12.64
  Q 186.63 9.54 190.99 9.53
  Q 240.07 9.48 243.11 9.48
  Q 246.72 9.48 248.29 10.30
  Q 250.96 11.68 251.09 15.40
  Q 251.41 24.78 251.19 33.63
  Q 251.18 34.18 251.73 34.21
  L 295.00 36.77
  Z"
/>
<path fill="#212121" d="
  M 298.38 36.89
  Q 300.21 40.43 300.79 43.25
  C 301.52 46.81 293.56 48.00 291.45 47.98
  Q 290.20 47.96 289.60 46.88
  Q 287.45 42.99 289.99 40.68
  Q 290.54 40.18 292.83 39.40
  Q 295.22 38.58 295.00 36.77
  L 298.38 36.89
  Z"
/>
<path fill="#212121" d="
  M 274.84 43.19
  A 1.05 1.05 0.0 0 0 274.21 44.54
  L 277.38 53.25
  A 0.82 0.82 0.0 0 1 276.75 54.34
  L 274.30 54.79
  A 0.87 0.85 74.0 0 1 273.33 54.24
  L 269.27 43.08
  A 0.86 0.85 67.6 0 1 269.71 42.02
  L 275.42 39.34
  Q 275.96 39.09 277.64 40.05
  Q 277.92 40.22 278.09 40.58
  Q 278.63 41.81 277.37 42.27
  L 274.84 43.19
  Z"
/>
<path fill="#080808" d="
  M 292.37 42.80
  Q 294.33 40.88 296.11 41.55
  A 1.15 1.15 0.0 0 1 296.50 43.47
  Q 294.07 45.74 292.32 43.59
  Q 291.99 43.17 292.37 42.80
  Z"
/>
<path fill="#212121" d="
  M 259.41 55.01
  C 261.25 57.32 264.15 55.70 266.25 54.34
  A 0.91 0.91 0.0 0 1 267.60 54.79
  L 268.06 56.04
  Q 268.33 56.78 267.69 57.23
  C 263.43 60.24 257.91 61.49 255.02 55.87
  C 253.04 52.02 254.20 46.44 258.83 45.29
  Q 263.62 44.11 265.78 47.68
  Q 267.00 49.72 267.38 50.31
  A 0.72 0.72 0.0 0 1 267.16 51.30
  Q 263.71 53.58 259.86 53.97
  A 0.65 0.64 -21.9 0 0 259.41 55.01
  Z"
/>
<path fill="#212121" d="
  M 284.92 46.55
  Q 286.25 46.47 287.42 48.11
  A 1.79 1.79 0.0 0 1 286.69 50.78
  Q 286.11 51.04 285.20 51.10
  Q 284.29 51.16 283.68 50.97
  A 1.79 1.79 0.0 0 1 282.63 48.41
  Q 283.58 46.64 284.92 46.55
  Z"
/>
<path fill="#212121" d="
  M 245.93 54.85
  Q 245.94 55.52 246.99 58.04
  C 247.67 59.69 248.17 60.82 250.07 60.52
  Q 251.09 60.36 252.29 59.92
  Q 252.78 59.74 253.18 60.07
  Q 254.40 61.09 253.26 62.24
  Q 249.63 65.91 246.33 63.98
  Q 244.39 62.85 242.88 59.10
  Q 240.82 53.98 239.64 50.08
  Q 239.49 49.59 239.73 49.13
  Q 240.37 47.96 242.01 47.44
  Q 242.58 47.27 242.91 47.76
  L 244.38 49.93
  A 1.21 1.21 0.0 0 0 245.81 50.40
  L 248.15 49.55
  Q 248.68 49.36 249.08 49.75
  Q 249.91 50.56 250.13 51.84
  Q 250.23 52.45 249.65 52.69
  L 246.37 54.10
  Q 245.92 54.29 245.93 54.85
  Z"
/>
<path fill="#080808" d="
  M 261.86 50.06
  Q 260.03 51.27 258.78 51.48
  Q 258.26 51.57 258.14 51.05
  Q 257.73 49.33 259.27 48.89
  Q 260.61 48.51 261.52 48.63
  A 0.79 0.78 31.8 0 1 261.86 50.06
  Z"
/>
<path fill="#212121" d="
  M 233.10 60.39
  C 235.46 60.32 237.46 60.02 238.71 61.39
  Q 239.94 62.76 240.52 64.53
  Q 240.68 65.02 240.42 65.47
  Q 237.89 69.89 232.12 70.49
  A 1.35 1.35 0.0 0 1 230.71 69.61
  L 230.41 68.79
  A 0.99 0.98 -20.2 0 1 231.00 67.53
  L 235.68 65.83
  A 0.81 0.81 0.0 0 0 235.85 64.40
  C 234.70 63.65 233.30 63.92 230.99 63.96
  C 229.47 63.99 228.40 62.90 228.10 61.51
  C 227.06 56.65 231.48 53.67 235.79 54.76
  Q 236.30 54.89 236.50 55.38
  Q 236.93 56.50 236.40 57.51
  A 0.99 0.98 -78.4 0 1 235.63 58.02
  Q 233.83 58.19 232.83 58.72
  A 1.32 1.13 4.4 0 0 232.68 58.83
  Q 231.79 59.62 232.51 60.24
  Q 232.70 60.40 233.10 60.39
  Z"
/>
<path fill="#212121" d="
  M 219.70 65.21
  Q 220.32 63.44 218.54 64.01
  Q 216.63 64.62 214.71 65.28
  Q 214.23 65.45 213.76 65.24
  Q 213.04 64.90 212.55 64.21
  A 1.22 1.21 53.9 0 1 212.81 62.53
  Q 214.91 60.95 217.84 60.27
  Q 222.29 59.25 224.10 63.66
  Q 225.57 67.24 226.81 70.74
  A 1.31 1.30 -28.4 0 1 226.36 72.22
  Q 223.31 74.50 219.08 75.34
  Q 217.05 75.74 216.07 74.97
  C 214.29 73.58 213.57 70.88 214.23 68.83
  Q 214.54 67.86 216.47 66.99
  Q 217.85 66.38 219.23 65.73
  A 0.89 0.87 -3.4 0 0 219.70 65.21
  Z"
/>
<path fill="#212121" d="
  M 202.80 69.84
  L 202.52 69.86
  Q 201.16 69.98 201.58 71.27
  L 204.23 79.54
  Q 204.64 80.82 203.26 81.32
  L 202.40 81.64
  Q 200.89 82.19 200.32 80.69
  L 197.68 73.82
  A 2.26 1.84 74.4 0 0 195.60 72.35
  Q 195.53 72.36 195.20 72.37
  Q 193.54 72.39 194.11 73.94
  L 196.80 81.34
  Q 197.46 83.15 195.64 83.81
  L 195.08 84.02
  Q 193.41 84.62 192.81 82.96
  L 189.31 73.34
  A 2.36 2.35 -31.8 0 1 189.91 70.81
  C 191.75 69.07 195.41 68.47 197.84 68.40
  Q 198.34 68.39 198.72 68.08
  C 199.44 67.49 200.02 66.82 200.88 66.43
  Q 205.24 64.40 207.83 67.52
  Q 208.83 68.73 209.92 72.03
  Q 210.77 74.62 211.56 76.84
  Q 212.03 78.14 210.72 78.62
  L 209.51 79.06
  Q 208.33 79.49 207.83 78.33
  L 204.72 71.03
  Q 204.17 69.72 202.80 69.84
  Z"
/>
<path fill="#080808" d="
  M 222.0769 69.8635
  A 1.21 1.21 0.0 0 1 221.0856 71.2584
  L 219.5080 71.5252
  A 1.21 1.21 0.0 0 1 218.1132 70.5339
  L 218.0831 70.3565
  A 1.21 1.21 0.0 0 1 219.0744 68.9616
  L 220.6520 68.6948
  A 1.21 1.21 0.0 0 1 222.0468 69.6861
  L 222.0769 69.8635
  Z"
/>
<path fill="#212121" d="
  M 154.47 92.91
  Q 154.39 101.20 146.19 101.32
  Q 143.03 99.22 141.92 96.50
  Q 140.52 93.11 143.47 90.52
  Q 143.77 94.86 146.72 97.17
  A 1.99 1.99 0.0 0 0 149.90 95.25
  L 148.96 90.15
  Q 148.85 89.54 148.24 89.45
  L 145.53 89.05
  Q 150.81 87.63 154.47 92.91
  Z"
/>
<path fill="#080808" d="
  M 292.1192 90.5647
  A 5.87 5.87 0.0 0 1 292.1192 98.8661
  L 273.7061 117.2792
  A 5.87 5.87 0.0 0 1 265.4047 117.2792
  L 265.2208 117.0953
  A 5.87 5.87 0.0 0 1 265.2208 108.7939
  L 283.6339 90.3808
  A 5.87 5.87 0.0 0 1 291.9353 90.3808
  L 292.1192 90.5647
  Z"
/>
<path fill="#080808" d="
  M 145.53 89.05
  L 148.24 89.45
  Q 148.85 89.54 148.96 90.15
  L 149.90 95.25
  A 1.99 1.99 0.0 0 1 146.72 97.17
  Q 143.77 94.86 143.47 90.52
  Q 144.22 89.58 145.53 89.05
  Z"
/>
<path fill="#080808" d="
  M 154.47 92.91
  Q 166.98 104.87 170.21 108.53
  Q 172.10 110.67 171.82 113.54
  Q 171.57 116.11 169.41 117.63
  Q 167.60 118.91 165.22 118.78
  Q 163.59 118.69 161.71 116.87
  Q 154.18 109.60 146.19 101.32
  Q 154.39 101.20 154.47 92.91
  Z"
/>
<path fill="#080808" d="
  M 274.85 249.55
  Q 269.84 247.12 266.95 249.19
  Q 265.67 250.11 264.72 250.86
  Q 264.34 251.17 263.84 251.13
  Q 259.48 250.78 255.96 253.81
  Q 255.58 254.14 255.66 254.64
  Q 255.99 256.64 257.24 258.96
  Q 215.97 259.02 175.17 259.00
  Q 170.41 258.99 169.00 258.07
  Q 166.78 256.61 166.20 253.86
  Q 165.91 252.46 166.84 249.22
  Q 168.60 243.11 176.07 217.01
  Q 176.20 216.56 175.73 216.56
  Q 169.81 216.47 167.79 216.27
  Q 143.57 213.90 128.00 197.25
  Q 111.98 180.13 111.30 156.51
  Q 111.16 151.65 114.66 150.14
  Q 116.16 149.50 120.91 149.50
  Q 148.89 149.51 177.58 149.50
  A 0.66 0.66 0.0 0 0 178.24 148.84
  Q 178.19 139.19 178.22 138.29
  Q 178.39 133.47 181.25 132.00
  Q 182.76 131.23 187.36 131.24
  Q 243.13 131.33 323.86 131.18
  Q 328.42 131.17 329.96 135.00
  Q 330.75 136.96 330.30 141.33
  Q 327.83 165.12 315.04 182.79
  Q 296.68 208.14 265.51 215.73
  A 0.30 0.30 0.0 0 0 265.29 216.10
  L 274.85 249.55
  Z"
/>
<path fill="#212121" d="
  M 274.85 249.55
  Q 276.22 252.74 274.72 255.51
  L 272.84 255.07
  Q 272.36 254.96 272.15 254.52
  Q 271.64 253.44 270.82 252.59
  C 269.93 251.66 268.14 251.98 267.39 252.86
  A 0.78 0.78 0.0 0 0 267.31 253.76
  Q 268.78 256.22 268.76 258.94
  Q 267.03 259.24 265.35 258.93
  Q 264.46 256.31 263.52 255.18
  Q 262.54 253.97 260.88 254.49
  Q 260.42 254.64 260.42 255.12
  L 260.42 258.94
  L 257.24 258.96
  Q 255.99 256.64 255.66 254.64
  Q 255.58 254.14 255.96 253.81
  Q 259.48 250.78 263.84 251.13
  Q 264.34 251.17 264.72 250.86
  Q 265.67 250.11 266.95 249.19
  Q 269.84 247.12 274.85 249.55
  Z"
/>
<path fill="#080808" d="
  M 274.72 255.51
  Q 273.36 259.24 268.76 258.94
  Q 268.78 256.22 267.31 253.76
  A 0.78 0.78 0.0 0 1 267.39 252.86
  C 268.14 251.98 269.93 251.66 270.82 252.59
  Q 271.64 253.44 272.15 254.52
  Q 272.36 254.96 272.84 255.07
  L 274.72 255.51
  Z"
/>
<path fill="#080808" d="
  M 265.35 258.93
  L 260.42 258.94
  L 260.42 255.12
  Q 260.42 254.64 260.88 254.49
  Q 262.54 253.97 263.52 255.18
  Q 264.46 256.31 265.35 258.93
  Z"
/>
</svg>
