<?xml version="1.0" standalone="no"?>
<!DOCTYPE svg PUBLIC "-//W3C//DTD SVG 20010904//EN"
 "http://www.w3.org/TR/2001/REC-SVG-20010904/DTD/svg10.dtd">
<svg version="1.0" xmlns="http://www.w3.org/2000/svg"
 width="451.000000pt" height="278.000000pt" viewBox="0 0 451.000000 278.000000"
 preserveAspectRatio="xMidYMid meet">

<g transform="translate(0.000000,278.000000) scale(0.100000,-0.100000)"
fill="#000000" stroke="none">
<path d="M1859 2663 c-11 -13 -15 -101 -17 -460 l-3 -443 26 -26 25 -25 296 3
c279 3 296 4 310 22 10 14 14 50 14 122 l0 101 83 6 c45 4 251 16 457 27 441
24 456 26 481 51 17 17 19 34 19 148 0 143 -8 178 -42 186 -13 3 -113 12 -223
20 -110 8 -227 19 -260 24 -33 5 -145 10 -250 10 -104 1 -207 4 -227 7 l-38 7
0 99 c0 55 -5 108 -10 119 -10 18 -24 19 -319 19 -275 0 -310 -2 -322 -17z"/>
<path d="M1443 1883 c-16 -10 -23 -26 -23 -47 0 -26 17 -47 109 -138 69 -69
116 -108 130 -108 27 0 61 34 61 62 0 25 -203 233 -235 242 -11 2 -30 -2 -42
-11z"/>
<path d="M2747 1782 c-81 -81 -107 -114 -107 -133 0 -30 28 -59 56 -59 23 0
244 218 244 240 0 29 -30 60 -58 60 -21 0 -51 -24 -135 -108z"/>
<path d="M1805 1445 c-22 -21 -25 -33 -25 -95 l0 -70 -320 0 -320 0 -16 -26
c-16 -23 -16 -32 -2 -120 29 -173 120 -317 261 -412 96 -64 179 -92 290 -99
48 -3 87 -9 87 -12 0 -3 -23 -84 -50 -179 -28 -95 -50 -180 -50 -188 0 -8 9
-23 20 -34 19 -19 33 -20 528 -20 480 0 510 1 525 18 25 28 21 62 -32 245 -33
113 -45 170 -37 172 99 30 132 43 197 77 146 75 280 211 356 362 43 85 83 238
83 317 0 96 62 89 -758 89 l-713 0 -24 -25z"/>
</g>
</svg>
