<svg width="150" height="154" viewBox="0 0 150 154" fill="none" xmlns="http://www.w3.org/2000/svg">
<path d="M45.9509 1.19633C45.276 1.99388 45.0306 7.39265 44.9079 29.4172L44.7239 56.5951L46.319 58.1902L47.8527 59.7239L66.0122 59.5399C83.1288 59.3558 84.1717 59.2945 85.0306 58.1902C85.6441 57.3313 85.8895 55.1227 85.8895 50.7055V44.5092L90.9815 44.1411C93.7423 43.8957 106.38 43.1595 119.018 42.4847C146.074 41.0123 146.994 40.8896 148.528 39.3558C149.571 38.3129 149.693 37.27 149.693 30.2761C149.693 21.5031 149.202 19.3558 147.117 18.865C146.319 18.681 140.184 18.1288 133.436 17.638C126.687 17.1473 119.509 16.4724 117.485 16.1657C115.46 15.8589 108.589 15.5522 102.147 15.5522C95.7668 15.4908 89.4478 15.3068 88.2208 15.1227L85.8895 14.6933V8.61964C85.8895 5.24541 85.5828 1.99388 85.276 1.31903C84.6625 0.214735 83.8036 0.153385 65.7055 0.153385C48.8343 0.153385 46.6871 0.276085 45.9509 1.19633Z" fill="black"/>
<path d="M20.4294 49.0491C19.4478 49.6626 19.0184 50.6442 19.0184 51.9325C19.0184 53.5276 20.0613 54.816 25.7055 60.3988C29.9386 64.6319 32.8221 67.0246 33.6809 67.0246C35.3374 67.0246 37.4233 64.9387 37.4233 63.2209C37.4233 61.6871 24.9693 48.9264 23.0061 48.3743C22.3313 48.2516 21.1656 48.497 20.4294 49.0491Z" fill="black"/>
<path d="M100.429 55.2454C95.4601 60.2148 93.865 62.2393 93.865 63.4049C93.865 65.2454 95.5828 67.0246 97.3006 67.0246C98.7116 67.0246 112.27 53.6503 112.27 52.3006C112.27 50.5215 110.429 48.6197 108.712 48.6197C107.423 48.6197 105.583 50.0921 100.429 55.2454Z" fill="black"/>
<path d="M42.638 75.9203C41.2883 77.2086 41.1043 77.9448 41.1043 81.7485V86.043H21.4724H1.84046L0.858869 87.638C-0.122727 89.0491 -0.122727 89.6012 0.736169 95C2.51531 105.614 8.09813 114.448 16.7484 120.276C22.638 124.202 27.73 125.92 34.5399 126.35C37.4846 126.534 39.8773 126.902 39.8773 127.086C39.8773 127.27 38.4662 132.239 36.8098 138.067C35.092 143.896 33.7423 149.11 33.7423 149.601C33.7423 150.092 34.2945 151.012 34.9693 151.687C36.1349 152.853 36.9938 152.914 67.3619 152.914C96.8098 152.914 98.6503 152.853 99.5705 151.81C101.104 150.092 100.859 148.006 97.6073 136.779C95.5828 129.847 94.8466 126.35 95.3374 126.227C101.411 124.387 103.436 123.589 107.423 121.503C116.38 116.902 124.601 108.558 129.264 99.2945C131.902 94.0798 134.356 84.6933 134.356 79.8466C134.356 73.9571 138.159 74.3865 87.8527 74.3865H44.1104L42.638 75.9203Z" fill="black"/>
</svg>
